<mxfile host="app.diagrams.net" modified="2022-07-01T05:55:04.173Z" agent="5.0 (Windows NT 10.0; Win64; x64) AppleWebKit/537.36 (KHTML, like Gecko) Chrome/103.0.5060.53 Safari/537.36 Edg/103.0.1264.37" etag="1J0fIqs8Skot6bnaeqYt" version="20.0.4" type="github">
  <diagram id="C5RBs43oDa-KdzZeNtuy" name="Page-1">
    <mxGraphModel dx="1635" dy="866" grid="1" gridSize="10" guides="1" tooltips="1" connect="1" arrows="1" fold="1" page="1" pageScale="1" pageWidth="827" pageHeight="1169" math="0" shadow="0">
      <root>
        <mxCell id="v-0" />
        <mxCell id="v-1" parent="v-0" />
        <mxCell id="e-0" style="edgeStyle=orthogonalEdgeStyle;rounded=0;orthogonalLoop=1;jettySize=auto;html=1;entryX=0;entryY=0.5;entryDx=0;entryDy=0;sketch=1;" parent="v-1" source="v-2" target="v-3" edge="1" visible="0">
          <mxGeometry relative="1" as="geometry" />
        </mxCell>
        <mxCell id="e-1" style="edgeStyle=orthogonalEdgeStyle;rounded=0;orthogonalLoop=1;jettySize=auto;html=1;entryX=0;entryY=0.5;entryDx=0;entryDy=0;sketch=1;" parent="v-1" source="v-2" target="v-4" edge="1" visible="0">
          <mxGeometry relative="1" as="geometry" />
        </mxCell>
        <mxCell id="v-2" value="GlobalEvent" style="rounded=1;whiteSpace=wrap;html=1;sketch=1;treeFolding=1;treeMoving=1;" parent="v-1" vertex="1" tooltips="ABC" collapsed="1">
          <mxGeometry x="60" y="240" width="120" height="40" as="geometry" />
        </mxCell>
        <UserObject label="Filter A" tooltip="AAAAAA" id="v-3">
          <mxCell style="rounded=1;whiteSpace=wrap;html=1;sketch=1;treeFolding=1;treeMoving=1;" parent="v-1" vertex="1" tooltips="ABC" visible="0">
            <mxGeometry x="270" y="160" width="120" height="40" as="geometry" />
          </mxCell>
        </UserObject>
        <mxCell id="v-4" value="Filter B" style="rounded=1;whiteSpace=wrap;html=1;sketch=1;treeFolding=1;treeMoving=1;" parent="v-1" vertex="1" tooltips="ABC" visible="0">
          <mxGeometry x="270" y="320" width="120" height="40" as="geometry" />
        </mxCell>
      </root>
    </mxGraphModel>
  </diagram>
</mxfile>
